<svg xmlns="http://www.w3.org/2000/svg" viewBox="0 0 274.30273 70.48828"><defs><style>.cls-1{fill:#c7b299;}</style></defs><title>Asset 2</title><g id="Layer_2" data-name="Layer 2"><g id="Layer_1-2" data-name="Layer 1"><path class="cls-1" d="M77.87012,11.24951l13.18359,9.14063L89.82324,64.51123,99.667,70.48779,81.03418,78.22217l-9.668-7.11914,1.14258-42.36328L60.64355,23.81787,59.58887,64.51123l8.4375,6.06445L50.7998,78.22217,41.044,71.103l1.23046-42.36328L30.2334,23.73l-.791,40.78125,7.998,5.97656L20.65332,78.22217l-9.668-7.11914.70313-44.1211L-.001,19.51123l18.63282-8.26172,11.68945,8.17383,16.43555-8.17383,14.15039,7.998Z" transform="translate(0.00098 -8.5249)"/><path class="cls-1" d="M133.15234,66.53271l.17578-23.20312-7.998-5.97656,15.9082-7.82227,8.96484,7.207-.26367,26.80664,9.49219,7.38282L142.9082,78.22217l-9.93164-7.38281L117.332,78.22217l-13.0957-9.05274.61523-25.83984L94.30469,37.353l18.457-7.82227,8.96484,7.207-.70312,25.13672Z" transform="translate(0.00098 -8.5249)"/><path class="cls-1" d="M158.90332,54.40381l.17578-11.68945L180.876,28.47607l16.96289,5.00977-9.22852,8.87695-13.88672-4.39453-.08789,6.76758L195.72949,51.855l-.17578,14.0625L172.70215,78.22217l-15.55664-5.53711,10.72265-8.52539,12.39258,4.043.17578-6.94336Z" transform="translate(0.00098 -8.5249)"/><path class="cls-1" d="M197.04688,36.91357l17.22656-7.38281,9.75586,9.14063L223.502,64.51123l9.84375,5.97656-17.7539,7.73438-8.877-7.11914.52735-26.89453Zm16.25976-11.07421L209.08789,22.148l15.73242-13.623,4.39453,4.30664Z" transform="translate(0.00098 -8.5249)"/><path class="cls-1" d="M262.7002,45.96631,250.044,40.78076V59.76514l19.07226,9.58007-21.5332,9.668L232.72949,68.29053l.35156-25.04883,25.22461-14.41406,15.9961,6.76757Z" transform="translate(0.00098 -8.5249)"/></g></g></svg>
