<svg xmlns="http://www.w3.org/2000/svg" viewBox="0 0 1329.57568 1083.81104"><defs><style>.cls-1{fill:#c7b299;}</style></defs><title>Asset 1</title><g id="Layer_2" data-name="Layer 2"><g id="Layer_1-2" data-name="Layer 1"><path class="cls-1" d="M100.044,352.10205,9.52832,313.55713,11.69385,78.82227,0,3.89746,11.69385,0,38.54541,49.37207,96.146,19.48877,94.41406,149.84912l77.08985-41.14355,64.53027,45.0415-3.03125,139.8877Zm51.10449-52.40381,2.16552-110.438L93.981,171.07031,91.38232,278.90967Z"/><path class="cls-1" d="M431.78662,291.03662l.86621-114.33594L393.2417,147.25049l78.38916-38.54492,44.17529,35.51318-1.29931,132.09277,46.77392,36.3794-81.4209,35.94629-48.93945-36.3794-77.08984,36.3794L289.2998,304.0293l3.03174-127.32862-51.9707-29.45019,90.94873-38.54492,44.17529,35.51318L372.02,268.08252Z"/><path class="cls-1" d="M660.45654,169.33789,659.15723,281.0752l39.41162,29.45019L620.1792,348.63721,576.437,313.55713l.86621-132.52539L527.49805,145.085l84.45263-36.37939,48.939,39.84423L737.98,108.70557l64.96338,45.0415L799.47852,281.0752l48.50634,29.45019-87.48437,38.11182L716.3252,313.55713l2.59863-118.2334Z"/><path class="cls-1" d="M995.23291,189.69336l-62.36475-25.55225v93.54737l93.981,47.207L920.7417,352.53516l-73.1919-52.83692,1.73194-123.43066,124.29687-71.02686,78.82227,33.34815Z"/><path class="cls-1" d="M1142.04834,171.07031l-1.2998,110.00489,39.41113,29.45019L1101.771,348.63721l-43.74219-35.08008,1.73242-234.73486L1048.06689,3.89746,1059.76123,0l27.28418,49.37207,57.168-29.8833L1142.481,149.84912l77.08984-41.14355,64.53027,45.0415-3.03125,127.32813,48.50586,29.45019-87.48437,38.11182-44.17481-35.08008,3.46485-124.29688Z"/><path class="cls-1" d="M102.64258,732.32959l-90.94873-57.168.86572-116.93457,132.09277-73.19238,90.51563,59.7666-1.29932,122.13086Zm49.80517-54.13672,2.16553-103.94141L91.81543,542.63525l-.86621,103.07618Z"/><path class="cls-1" d="M236.89648,554.76221l54.56934-51.1045,2.59863-46.34082L409.2666,389.32178,484.624,414.874,439.1499,469.44336l-66.26318-22.52051-1.29932,57.168h85.752l-34.647,50.23877H372.88672l-1.73242,106.54,48.50634,29.45019-87.48437,38.11133-43.74219-35.08008L292.332,554.76221Z"/><path class="cls-1" d="M9.09521,963.41162,9.96143,905.811,117.36768,835.6499l83.58642,24.68653-45.47461,43.74218L87.05127,882.42334,86.61816,915.772l103.9419,35.08008-.86621,69.294L77.09033,1080.77881.43311,1053.49463,53.27,1011.48486l61.06592,19.92188.86621-34.21387Z"/><path class="cls-1" d="M193.15479,907.10986l55.43554-52.40429,1.73242-42.00977,78.38916-24.25293-.86621,68.42871,85.752-.43359-33.78077,50.23926H329.145l-1.73242,103.50781,66.69629,26.85156L311.38867,1083.811l-66.69629-38.11231,3.89795-138.58887Z"/><path class="cls-1" d="M579.46533,1023.17822l.86621-114.33593-39.41113-29.4502,78.38916-38.54492,44.17529,35.51367-1.29931,132.0918,46.77392,36.37988-81.4209,35.94629-48.93945-36.37891-77.08984,36.37891-64.53076-44.6084,3.03173-127.32812-51.9707-29.4502,90.94873-38.54492,44.17529,35.51367-3.46484,123.86328Z"/><path class="cls-1" d="M672.57812,907.10986l54.56934-51.10449,2.59863-46.34082,115.20215-67.99512,75.35742,25.55274L874.83154,821.7915,808.56836,799.27,807.269,856.438h85.752l-34.647,50.23926H808.56836l-1.73242,106.54,48.50635,29.45019-87.48438,38.11133-43.74219-35.08008,3.898-138.58887Z"/><path class="cls-1" d="M848.40918,907.10986l54.56934-51.10449,2.59863-46.34082,115.20166-67.99512,75.3584,25.55274L1050.6626,821.7915,984.3999,799.27l-1.2998,57.168h85.75195l-34.64746,50.23926H984.3999l-1.73242,106.54,48.50586,29.45019L943.689,1080.77881l-43.74218-35.08008,3.898-138.58887Z"/></g></g></svg>
